HIERARCHY
ROOT hip
{
  OFFSET 0 0 0
  CHANNELS 6 Xposition Yposition Zposition Zrotation Yrotation Xrotation
  JOINT abdomen
  {
    OFFSET 0 20.6881 -0.73152
    CHANNELS 3 Zrotation Xrotation Yrotation
    JOINT chest
    {
      OFFSET 0 11.7043 -0.48768
      CHANNELS 3 Zrotation Xrotation Yrotation
      JOINT neck
      {
        OFFSET 0 22.1894 -2.19456
        CHANNELS 3 Zrotation Xrotation Yrotation
        JOINT head
        {
          OFFSET -0.24384 7.07133 1.2192
          CHANNELS 3 Zrotation Xrotation Yrotation
          JOINT leftEye
          {
            OFFSET 4.14528 8.04674 8.04672
            CHANNELS 3 Zrotation Xrotation Yrotation
            End Site
            {
              OFFSET 1 0 0
            }
          }
          JOINT rightEye
          {
            OFFSET -3.6576 8.04674 8.04672
            CHANNELS 3 Zrotation Xrotation Yrotation
            End Site
            {
              OFFSET 1 0 0
            }
          }
        }
      }
      JOINT rCollar
      {
        OFFSET -2.68224 19.2634 -4.8768
        CHANNELS 3 Zrotation Xrotation Yrotation
        JOINT rShldr
        {
          OFFSET -8.77824 -1.95073 1.46304
          CHANNELS 3 Zrotation Xrotation Yrotation
          JOINT rForeArm
          {
            OFFSET -28.1742 -1.7115 0.48768
            CHANNELS 3 Zrotation Xrotation Yrotation
            JOINT rHand
            {
              OFFSET -22.5879 0.773209 7.07136
              CHANNELS 3 Zrotation Xrotation Yrotation
              JOINT rThumb1
              {
                OFFSET -1.2192 -0.487915 3.41376
                CHANNELS 3 Zrotation Xrotation Yrotation
                JOINT rThumb2
                {
                  OFFSET -3.37035 -0.52449 3.41376
                  CHANNELS 3 Zrotation Xrotation Yrotation
                  End Site
                  {
                    OFFSET -1.78271 -1.18214 1.43049
                  }
                }
              }
              JOINT rIndex1
              {
                OFFSET -7.75947 0.938293 5.60832
                CHANNELS 3 Zrotation Xrotation Yrotation
                JOINT rIndex2
                {
                  OFFSET -2.54057 -0.884171 1.56538
                  CHANNELS 3 Zrotation Xrotation Yrotation
                  End Site
                  {
                    OFFSET -1.62519 -0.234802 1.16502
                  }
                }
              }
              JOINT rMid1
              {
                OFFSET -8.24714 1.18213 3.41376
                CHANNELS 3 Zrotation Xrotation Yrotation
                JOINT rMid2
                {
                  OFFSET -3.10165 -0.590103 1.0647
                  CHANNELS 3 Zrotation Xrotation Yrotation
                  End Site
                  {
                    OFFSET -2.48547 -0.328903 0.83742
                  }
                }
              }
              JOINT rRing1
              {
                OFFSET -8.82822 0.546677 1.51678
                CHANNELS 3 Zrotation Xrotation Yrotation
                JOINT rRing2
                {
                  OFFSET -2.60934 -0.819778 -0.0198488
                  CHANNELS 3 Zrotation Xrotation Yrotation
                  End Site
                  {
                    OFFSET -2.33842 -0.294052 0.168128
                  }
                }
              }
              JOINT rPinky1
              {
                OFFSET -8.27202 -0.0477905 -0.4584
                CHANNELS 3 Zrotation Xrotation Yrotation
                JOINT rPinky2
                {
                  OFFSET -1.82734 -0.647385 -0.700984
                  CHANNELS 3 Zrotation Xrotation Yrotation
                  End Site
                  {
                    OFFSET -1.69225 -0.51767 -0.607171
                  }
                }
              }
            }
          }
        }
      }
      JOINT lCollar
      {
        OFFSET 2.68224 19.2634 -4.8768
        CHANNELS 3 Zrotation Xrotation Yrotation
        JOINT lShldr
        {
          OFFSET 8.77824 -1.95073 1.46304
          CHANNELS 3 Zrotation Xrotation Yrotation
          JOINT lForeArm
          {
            OFFSET 28.1742 -1.7115 0.48768
            CHANNELS 3 Zrotation Xrotation Yrotation
            JOINT lHand
            {
              OFFSET 22.5879 0.773209 7.07136
              CHANNELS 3 Zrotation Xrotation Yrotation
              JOINT lThumb1
              {
                OFFSET 1.2192 -0.487915 3.41376
                CHANNELS 3 Zrotation Xrotation Yrotation
                JOINT lThumb2
                {
                  OFFSET 3.37035 -0.52449 3.41376
                  CHANNELS 3 Zrotation Xrotation Yrotation
                  End Site
                  {
                    OFFSET 1.78271 -1.18214 1.43049
                  }
                }
              }
              JOINT lIndex1
              {
                OFFSET 7.75947 0.938293 5.60832
                CHANNELS 3 Zrotation Xrotation Yrotation
                JOINT lIndex2
                {
                  OFFSET 2.54057 -0.884171 1.56538
                  CHANNELS 3 Zrotation Xrotation Yrotation
                  End Site
                  {
                    OFFSET 1.62519 -0.234802 1.16502
                  }
                }
              }
              JOINT lMid1
              {
                OFFSET 8.24714 1.18213 3.41376
                CHANNELS 3 Zrotation Xrotation Yrotation
                JOINT lMid2
                {
                  OFFSET 3.10165 -0.590103 1.0647
                  CHANNELS 3 Zrotation Xrotation Yrotation
                  End Site
                  {
                    OFFSET 2.48547 -0.328903 0.83742
                  }
                }
              }
              JOINT lRing1
              {
                OFFSET 8.82822 0.546677 1.51678
                CHANNELS 3 Zrotation Xrotation Yrotation
                JOINT lRing2
                {
                  OFFSET 2.60934 -0.819778 -0.0198488
                  CHANNELS 3 Zrotation Xrotation Yrotation
                  End Site
                  {
                    OFFSET 2.33842 -0.294052 0.168128
                  }
                }
              }
              JOINT lPinky1
              {
                OFFSET 8.27202 -0.0477905 -0.4584
                CHANNELS 3 Zrotation Xrotation Yrotation
                JOINT lPinky2
                {
                  OFFSET 1.82734 -0.647385 -0.700984
                  CHANNELS 3 Zrotation Xrotation Yrotation
                  End Site
                  {
                    OFFSET 1.69225 -0.51767 -0.607171
                  }
                }
              }
            }
          }
        }
      }
    }
  }
  JOINT rButtock
  {
    OFFSET -8.77824 4.35084 1.2192
    CHANNELS 3 Zrotation Xrotation Yrotation
    JOINT rThigh
    {
      OFFSET 0 -1.70687 -2.19456
      CHANNELS 3 Zrotation Xrotation Yrotation
      JOINT rShin
      {
        OFFSET 0 -36.8199 0.73152
        CHANNELS 3 Zrotation Xrotation Yrotation
        JOINT rFoot
        {
          OFFSET 0.73152 -45.1104 -5.12064
          CHANNELS 3 Zrotation Xrotation Yrotation
          End Site
          {
            OFFSET -1.1221 -3.69964 12.103
          }
        }
      }
    }
  }
  JOINT lButtock
  {
    OFFSET 8.77824 4.35084 1.2192
    CHANNELS 3 Zrotation Xrotation Yrotation
    JOINT lThigh
    {
      OFFSET 0 -1.70687 -2.19456
      CHANNELS 3 Zrotation Xrotation Yrotation
      JOINT lShin
      {
        OFFSET 0 -36.8199 0.73152
        CHANNELS 3 Zrotation Xrotation Yrotation
        JOINT lFoot
        {
          OFFSET -0.73152 -45.1104 -5.12064
          CHANNELS 3 Zrotation Xrotation Yrotation
          End Site
          {
            OFFSET 1.1221 -3.69964 12.103
          }
        }
      }
    }
  }
}
MOTION
Frames:	4
Frame Time:	0.00833333
-4.91427 84.8033 33.8783 0.0 0.0 0.0 -0.305087 -0.00406096 -0.00879773 -0.0843765 -0.0066655 -0.0146211 -8.09155e-16 -7.95139e-16 6.52262e-17 -2.45375e-15 3.18055e-15 2.01891e-16 -0.0 0.0 0.0 -0.0 0.0 0.0 -2.99408e-16 1.84419e-17 2.98177e-16 -7.19041e-15 1.80149e-16 1.19271e-15 -1.45858e-13 5.68524e-14 6.36111e-15 -1.74247e-12 1.30204e-14 1.24042e-13 -4.10115e-12 1.53921e-13 3.21236e-13 -7.09303e-12 2.60805e-13 5.51031e-13 -4.09536e-12 1.56642e-13 3.05333e-13 7.73091 5.47488 0.417314 -4.10247e-12 1.53859e-13 3.18055e-13 2.90554 0.965183 0.102902 -4.09993e-12 1.53859e-13 3.18055e-13 10.2786 0.731801 0.0259123 -4.10292e-12 1.53859e-13 3.33958e-13 2.22167 -0.733487 -0.20892 -4.95759e-16 1.86361e-17 -1.98785e-16 -1.03092e-14 1.05604e-16 0.0 -1.59127e-13 -3.27995e-14 2.54444e-14 -1.73361e-12 1.0461e-13 1.39944e-13 -4.10473e-12 1.61551e-13 3.21236e-13 -7.08111e-12 2.79889e-13 5.54212e-13 -4.10928e-12 1.63799e-13 3.30778e-13 -7.73091 5.47488 -0.417314 -4.10371e-12 1.60916e-13 3.21236e-13 -2.90554 0.965183 -0.102902 -4.10579e-12 1.61711e-13 3.20441e-13 -10.2786 0.731801 -0.0259123 -4.10351e-12 1.62606e-13 3.08514e-13 -2.22167 -0.733487 0.20892 -2.03217e-16 0.0 -3.88251e-19 0.199379 -2.70344 -0.0288718 -0.0065636 -0.653369 -0.0573639 -0.429997 3.35781 0.115504 2.03217e-16 0.0 3.88251e-19 -0.667236 -3.93836 0.0583941 0.00310864 1.58344 0.0241668 0.437797 2.35596 -0.0966888
-5.78629 82.9681 32.6902 2.3663 -14.2782 7.5674 -1.21467 -3.94606 -1.88517 0.523996 -1.29246 -0.537812 -0.56026 1.9816 -1.54892 -0.563712 2.81738 -3.07735 -0.0 0.0 0.0 -0.0 0.0 0.0 2.04815e-14 7.56713e-15 -1.62351e-14 20.2524 0.541313 -2.22063 -3.28842 -1.34713 5.2848 0.0370076 4.27096 0.594243 1.53905e-10 -5.59437e-10 2.20941e-10 2.68814e-10 -9.70549e-10 3.79744e-10 1.53908e-10 -5.59434e-10 2.20924e-10 7.73091 5.47488 0.417314 1.53902e-10 -5.59436e-10 2.2094e-10 2.90554 0.965183 0.102902 1.53905e-10 -5.59437e-10 2.20937e-10 10.2786 0.731801 0.0259123 1.53901e-10 -5.59437e-10 2.2095e-10 2.22167 -0.733487 -0.20892 2.03876e-14 7.5677e-15 -1.65915e-14 -23.2495 0.431634 4.6335 4.50443 -2.10664 -6.96925 -0.0594588 5.41343 -0.748596 2.95406e-10 8.21889e-11 -3.20481e-10 5.05542e-10 1.3404e-10 -5.59484e-10 2.95403e-10 8.2192e-11 -3.20468e-10 -7.73091 5.47488 -0.417314 2.95409e-10 8.2187e-11 -3.20481e-10 -2.90554 0.965183 -0.102902 2.95405e-10 8.21874e-11 -3.20481e-10 -10.2786 0.731801 -0.0259123 2.95409e-10 8.21878e-11 -3.20493e-10 -2.22167 -0.733487 0.20892 -2.03217e-16 0.0 -3.88251e-19 -2.77214 -7.60692 3.33019 0.0199604 6.97847 0.115027 -1.11622 -0.513273 -5.19773 2.03217e-16 0.0 3.88251e-19 -1.1196 -4.66782 -4.12963 -0.0226589 5.04268 -0.108216 1.49254 -3.09367 10.3848
-5.78984 82.9677 32.6883 2.3491 -14.2791 7.5749 -2.45886 -8.10057 -3.89871 1.14133 -2.65122 -1.09181 -1.03467 4.07086 -3.19078 -0.83027 5.77173 -6.35193 -0.0 0.0 0.0 -0.0 0.0 0.0 4.19589e-14 1.51154e-14 -4.00303e-14 41.7056 1.09818 -4.57071 -6.49248 -2.73102 10.8756 -0.0213193 8.79782 1.2354 3.65978e-10 -1.23747e-09 4.53568e-10 6.38286e-10 -2.14662e-09 7.78953e-10 3.65979e-10 -1.23747e-09 4.53549e-10 7.73091 5.47488 0.417314 3.65974e-10 -1.23747e-09 4.53569e-10 2.90554 0.965183 0.102902 3.65977e-10 -1.23747e-09 4.53563e-10 10.2786 0.731801 0.0259123 3.65971e-10 -1.23747e-09 4.53573e-10 2.22167 -0.733487 -0.20892 4.19776e-14 1.51166e-14 -4.02353e-14 -47.9029 0.882365 9.53207 8.71479 -4.23076 -14.3689 0.0341524 11.1303 -1.56212 6.59823e-10 2.08222e-10 -6.78551e-10 1.12968e-09 3.42502e-10 -1.18514e-09 6.59821e-10 2.08226e-10 -6.78536e-10 -7.73091 5.47488 -0.417314 6.59828e-10 2.08219e-10 -6.78553e-10 -2.90554 0.965183 -0.102902 6.59822e-10 2.08219e-10 -6.78551e-10 -10.2786 0.731801 -0.0259123 6.59827e-10 2.08218e-10 -6.78564e-10 -2.22167 -0.733487 0.20892 -2.03217e-16 0.0 -3.88251e-19 -5.27498 -12.7254 6.99353 -0.00337697 15.0463 0.305992 -2.6194 -4.52816 -10.8478 2.03217e-16 0.0 3.88251e-19 -1.71356 -5.40398 -8.5665 -0.0323827 8.69998 -0.250215 4.74407 -8.33686 21.6739
-5.78476 82.9688 32.6917 2.3676 -14.2599 7.5624 -3.8212 -11.7787 -5.74589 1.67017 -3.86274 -1.58739 -1.35828 5.92738 -4.66899 -0.779327 8.35417 -9.32064 -0.0 0.0 0.0 -0.0 0.0 0.0 6.20432e-14 2.26645e-14 -4.93017e-14 60.8828 1.61418 -6.66426 -9.12884 -3.90409 15.8878 -0.160479 12.8073 1.82315 4.69917e-10 -1.67862e-09 6.62181e-10 8.20629e-10 -2.91217e-09 1.13813e-09 4.69916e-10 -1.67862e-09 6.62162e-10 7.73091 5.47488 0.417314 4.69912e-10 -1.67862e-09 6.62184e-10 2.90554 0.965183 0.102902 4.69915e-10 -1.67862e-09 6.62176e-10 10.2786 0.731801 0.0259123 4.69907e-10 -1.67862e-09 6.62183e-10 2.22167 -0.733487 -0.20892 6.21543e-14 2.26658e-14 -4.9377e-14 -69.9558 1.2611 13.9035 12.0068 -5.94669 -21.0119 0.260862 16.229 -2.32861 8.94428e-10 2.46244e-10 -9.62084e-10 1.53079e-09 4.01561e-10 -1.67956e-09 8.94427e-10 2.46248e-10 -9.62066e-10 -7.73091 5.47488 -0.417314 8.94435e-10 2.46239e-10 -9.62087e-10 -2.90554 0.965183 -0.102902 8.94427e-10 2.46239e-10 -9.62084e-10 -10.2786 0.731801 -0.0259123 8.94434e-10 2.46238e-10 -9.62097e-10 -2.22167 -0.733487 0.20892 -2.03217e-16 0.0 -3.88251e-19 -6.92942 -17.1807 10.4305 -0.0733626 22.2415 0.494002 -4.62943 -7.94669 -15.9807 2.03217e-16 0.0 3.88251e-19 -2.34146 -6.01722 -12.5344 -0.0253202 11.9609 -0.379957 9.37074 -12.0542 32.0905
